<svg height="512" viewBox="0 0 480 480" width="512" xmlns="http://www.w3.org/2000/svg"><g id="Layer_2" data-name="Layer 2"><g id="_19.S_" data-name="19.S_"><rect id="background" fill="#3cb53f" height="480" rx="240" width="480"/><path d="m314 275c0 40.25-35 57.4-72.81 57.4-35 0-61.6-13.3-75.25-41.65l45.5-25.9c4.55 13.3 14.36 20.65 29.75 20.65 12.61 0 18.91-3.85 18.91-10.85 0-19.25-86.11-9.1-86.11-69.65 0-38.15 32.2-57.4 68.61-57.4 28.35 0 53.55 12.6 68.25 37.45l-44.8 24.15c-4.9-9.1-11.9-15.4-23.45-15.4-9.1 0-14.71 3.5-14.71 9.8.03 19.95 86.11 6.65 86.11 71.4z" fill="#fff"/></g></g></svg>